<?xml version="1.0" encoding="UTF-8" standalone="no"?>
<svg
   width="100%"
   height="100%"
   viewBox="0 0 600 600"
   version="1.1"
   id="svg1"
   sodipodi:docname="flickr.svg"
   inkscape:version="1.3 (0e150ed6c4, 2023-07-21)"
   xmlns:inkscape="http://www.inkscape.org/namespaces/inkscape"
   xmlns:sodipodi="http://sodipodi.sourceforge.net/DTD/sodipodi-0.dtd"
   xmlns="http://www.w3.org/2000/svg"
   xmlns:svg="http://www.w3.org/2000/svg">
  <defs
     id="defs1" />
  <sodipodi:namedview
     id="namedview1"
     pagecolor="#000000"
     bordercolor="#666666"
     borderopacity="1.0"
     inkscape:showpageshadow="2"
     inkscape:pageopacity="0.0"
     inkscape:pagecheckerboard="0"
     inkscape:deskcolor="#d1d1d1"
     inkscape:zoom="0.44850181"
     inkscape:cx="345.59504"
     inkscape:cy="364.54702"
     inkscape:window-width="2496"
     inkscape:window-height="1558"
     inkscape:window-x="2869"
     inkscape:window-y="352"
     inkscape:window-maximized="1"
     inkscape:current-layer="svg1" />
  <path
     d="M 535.71429,0 H 64.285714 C 28.794643,0 0,28.794643 0,64.285714 V 535.71429 C 0,571.20536 28.794643,600 64.285714,600 H 535.71429 C 571.20536,600 600,571.20536 600,535.71429 V 64.285714 C 600,28.794643 571.20536,0 535.71429,0 Z m -342.1875,384.375 c -47.00893,0 -85.04465,-38.03571 -85.04465,-85.04464 0,-47.00893 38.03572,-85.04465 85.04465,-85.04465 47.00892,0 85.04464,38.03572 85.04464,85.04465 0,47.00893 -38.03572,85.04464 -85.04464,85.04464 z m 212.94642,0 c -47.00892,0 -85.04464,-38.03571 -85.04464,-85.04464 0,-47.00893 38.03572,-85.04465 85.04464,-85.04465 47.00893,0 85.04465,38.03572 85.04465,85.04465 0,47.00893 -38.03572,85.04464 -85.04465,85.04464 z"
     id="path1"
   />
</svg>
