<?xml version="1.0" encoding="UTF-8" standalone="no"?>
<svg
   width="100%"
   height="100%"
   viewBox="0 0 600 600"
   version="1.1"
   id="svg1"
   sodipodi:docname="next.svg"
   inkscape:version="1.3 (0e150ed6c4, 2023-07-21)"
   xmlns:inkscape="http://www.inkscape.org/namespaces/inkscape"
   xmlns:sodipodi="http://sodipodi.sourceforge.net/DTD/sodipodi-0.dtd"
   xmlns="http://www.w3.org/2000/svg"
   xmlns:svg="http://www.w3.org/2000/svg">
  <defs
     id="defs1" />
  <sodipodi:namedview
     id="namedview1"
     pagecolor="#000000"
     bordercolor="#666666"
     borderopacity="1.0"
     inkscape:showpageshadow="2"
     inkscape:pageopacity="0.0"
     inkscape:pagecheckerboard="0"
     inkscape:deskcolor="#d1d1d1"
     inkscape:zoom="1.2685547"
     inkscape:cx="433.95843"
     inkscape:cy="206.14011"
     inkscape:window-width="2880"
     inkscape:window-height="1694"
     inkscape:window-x="-11"
     inkscape:window-y="-11"
     inkscape:window-maximized="1"
     inkscape:current-layer="svg1" />
  <path
     id="path1"
     d="M 187.54527,31.637419 C 177.34068,32.094697 167.74574,37.368807 161.01115,44.907094 C 155.15865,50.873655 150.70249,58.540908 149.78967,66.955306 C 148.60556,76.998519 152.13721,87.363517 158.85983,94.863195 C 161.19486,97.524565 163.94434,99.772648 166.37364,102.34396 C 204.24927,140.13871 242.04796,178.01048 279.91103,215.81782 C 316.40717,252.28256 352.91526,288.73854 389.50085,325.11525 C 398.94462,333.89854 413.56364,336.01795 425.40628,331.25079 C 429.28521,329.72248 432.79586,327.38904 435.89189,324.61401 C 442.50984,319.02949 448.20216,311.89492 450.56046,303.44178 C 453.94661,290.96679 449.7196,276.79702 440.07122,268.1984 C 363.94141,192.13984 287.85422,116.04118 211.64303,40.065793 C 205.73072,34.786224 197.85135,32.00202 189.98771,31.660015 C 189.38018,31.641382 188.32081,31.616127 187.54527,31.637419 Z" />
  <path
     id="path3"
     d="M 410.79458,255.87061 C 401.01848,256.31461 391.82197,261.24854 385.14929,268.25966 C 351.02773,302.61885 316.77981,336.85177 282.57832,371.13024 C 242.45559,411.32325 202.30672,451.48865 162.29091,491.78873 C 160.36082,493.80773 158.30516,495.72208 156.50464,497.8557 C 148.05672,509.04328 147.30895,525.58203 155.11359,537.30319 C 160.19155,544.81545 166.99627,551.37481 175.28539,555.20869 C 187.70639,560.70913 203.28432,557.93338 213.02371,548.45573 C 220.58743,541.1959 227.83745,533.61716 235.30849,526.26235 C 304.51244,456.97288 373.77224,387.73876 442.84866,318.3222 C 450.08692,310.63891 452.90017,299.38003 451.14188,289.07945 C 450.12055,283.11617 447.37533,277.52351 443.5186,272.88369 C 439.465,267.81503 434.54891,263.37119 428.90219,260.14509 C 423.4,257.12644 417.06696,255.62327 410.79458,255.87061 Z" />
</svg>
