<?xml version="1.0" encoding="UTF-8" standalone="no"?>
<svg
   width="100%"
   height="100%"
   fill="none"
   viewBox="0 0 600 600"
   version="1.1"
   id="svg1"
   sodipodi:docname="rebrickable.svg"
   inkscape:version="1.3 (0e150ed6c4, 2023-07-21)"
   xml:space="preserve"
   xmlns:inkscape="http://www.inkscape.org/namespaces/inkscape"
   xmlns:sodipodi="http://sodipodi.sourceforge.net/DTD/sodipodi-0.dtd"
   xmlns="http://www.w3.org/2000/svg"
   xmlns:svg="http://www.w3.org/2000/svg"><defs
     id="defs1" /><sodipodi:namedview
     id="namedview1"
     pagecolor="#000000"
     bordercolor="#666666"
     borderopacity="1.0"
     inkscape:showpageshadow="2"
     inkscape:pageopacity="0.0"
     inkscape:pagecheckerboard="false"
     inkscape:deskcolor="#d1d1d1"
     inkscape:zoom="1.4002008"
     inkscape:cx="211.39825"
     inkscape:cy="316.0261"
     inkscape:window-width="2496"
     inkscape:window-height="1558"
     inkscape:window-x="2869"
     inkscape:window-y="352"
     inkscape:window-maximized="1"
     inkscape:current-layer="g6" /><g
     transform="translate(-292)"
     id="g42"><g
       id="g6"
       transform="matrix(3.6505102,0,0,3.6505102,-714.68697,152.63523)"><path
         id="rect11"
         d="m 277.94325,-3.461223 c -1.20598,0 -2.17715,0.9648238 -2.17715,2.162438 v 22.026749 h 5.4761 c 1.22966,0 2.22008,1.030938 2.22008,2.312444 V 57.99649 c 0,1.281506 -0.99042,2.313032 -2.22008,2.313032 h -5.4761 v 22.026162 c 0,1.197614 0.97117,2.162437 2.17715,2.162437 h 70.41041 c 1.20598,0 2.17773,-0.964823 2.17773,-2.162437 V 60.309522 h 5.51904 c 1.20598,0 2.17715,-1.031527 2.17715,-2.313032 V 23.040408 c 0,-1.281505 -0.97117,-2.312444 -2.17715,-2.312444 h -5.51904 V -1.298785 c 0,-1.1976142 -0.97175,-2.162438 -2.17773,-2.162438 z m 40.13923,14.53822 c 6.23176,0 11.31533,1.407878 15.25118,4.223106 4.45517,3.17055 6.68262,7.748881 6.68262,13.734659 0,3.990518 -0.57388,7.174231 -1.72184,9.552141 -1.14795,2.377912 -3.26641,4.687847 -6.35496,6.929096 -0.62864,0.437316 -0.94298,0.847398 -0.94298,1.230049 0,-0.02735 1.66743,3.402662 5.00197,10.290405 3.33455,6.887742 5.00196,10.686866 5.00196,11.397507 0,0.191323 -0.27337,0.328021 -0.82003,0.410016 -1.03862,0.163997 -3.64906,0.245892 -7.83089,0.245892 -3.58053,0 -6.01274,-0.08189 -7.29735,-0.245892 -0.60131,-0.08199 -0.94334,-0.150048 -1.02534,-0.204714 -0.16399,-0.082 -0.35489,-0.355381 -0.57355,-0.820032 -0.40998,-1.065956 -1.01155,-2.651482 -1.80419,-4.75607 -1.06595,-2.733233 -2.73338,-6.764791 -5.00196,-12.094594 -0.49197,-1.065955 -1.62589,-1.653679 -3.40248,-1.763011 0.81996,0.05467 -0.58792,0.08236 -4.22311,0.08236 -0.40999,0 -0.61473,0.696724 -0.61473,2.090671 0,1.8586 0.16379,4.63282 0.49178,8.32268 0.35531,3.689863 0.53296,6.464086 0.53296,8.322681 0,0.464651 -0.12285,0.738037 -0.36884,0.820032 l -1.14827,0.08236 c -1.6126,0.109331 -4.12729,0.163535 -7.54383,0.163535 -3.90853,0 -6.25882,-0.08189 -7.05146,-0.245892 -0.79263,-0.163991 -1.18886,-0.587334 -1.18886,-1.270639 0,-7.958757 -0.14601,-32.677572 0.0818,-54.323314 l -0.0412,-0.57414 c -0.0273,-0.464653 0.39658,-0.778982 1.27123,-0.942978 0.90197,-0.163992 5.08406,-0.327791 12.54579,-0.491785 5.05648,-0.109331 9.08804,-0.164123 12.0946,-0.164123 z m -5.53493,12.176949 c -2.59657,0 -3.97676,0.396231 -4.14075,1.188871 -0.164,0.929297 -0.24648,3.607773 -0.24648,8.03561 0,0.628642 0.0138,1.557804 0.0412,2.787757 0.0274,1.229958 0.0412,2.145854 0.0412,2.747167 0,0.13666 0.43718,0.273352 1.31182,0.410016 1.66727,0.245985 3.4166,0.368838 5.24785,0.368838 5.98577,0 8.97859,-2.377991 8.97859,-7.13381 0,-3.334543 -1.09296,-5.64389 -3.27954,-6.928509 -1.6946,-0.983963 -4.34597,-1.47594 -7.95384,-1.47594 z" /><path
         d="m 359.84236,-3.461223 c -1.20598,0 -2.17774,0.9648238 -2.17774,2.162438 v 17.628341 h 5.4761 c 1.22967,0 2.22067,1.031526 2.22067,2.313032 V 62.39431 c 0,1.281506 -0.991,2.313032 -2.22067,2.313032 h -5.4761 v 17.628342 c 0,1.197614 0.97176,2.162437 2.17774,2.162437 h 70.41041 c 1.20597,0 2.17773,-0.964823 2.17773,-2.162437 V 60.309522 h 5.51846 c 1.20597,0 2.17773,-1.031527 2.17773,-2.313032 V 23.040408 c 0,-1.281505 -0.97176,-2.312444 -2.17773,-2.312444 H 432.4305 V -1.298785 c 0,-1.1976142 -0.97176,-2.162438 -2.17773,-2.162438 z m 26.57516,14.620576 c 8.71899,0 13.81641,0.02709 15.29236,0.08177 6.72375,0.24599 11.68446,1.339536 14.88236,3.280129 4.2365,2.596569 6.35494,6.983417 6.35494,13.160519 0,1.612608 -0.49197,3.320386 -1.47593,5.124319 -0.71065,1.284617 -1.6398,2.569654 -2.78776,3.854269 -1.01129,1.120627 -1.51712,1.639707 -1.51712,1.557708 0,0.19133 0.35529,0.491818 1.06592,0.9018 1.91327,1.093293 3.4169,2.829355 4.51018,5.207265 0.98398,2.131923 1.47594,4.400319 1.47594,6.805561 0,5.029147 -1.57167,9.1974 -4.71489,12.50461 -3.58053,3.799193 -9.86724,5.69846 -18.85957,5.69846 -0.68331,0 -1.66725,-0.01327 -2.95188,-0.04059 h -2.91069 c -10.08563,0 -16.08511,-0.205332 -17.99836,-0.615318 -0.79264,-0.163991 -1.18975,-0.690511 -1.18887,-1.270639 l 0.0818,-54.569207 -0.0412,-0.57414 c -0.0274,-0.519314 0.39658,-0.833649 1.27122,-0.942978 0.90197,-0.109331 4.07243,-0.163535 9.51156,-0.163535 z m 10.16745,11.602221 c -2.95188,0 -4.42781,0.218589 -4.42781,0.655908 0,0.519315 -0.0542,1.31237 -0.16354,2.378329 -0.082,1.038628 -0.12295,1.817251 -0.12295,2.336562 0,2.733236 0.23184,4.263955 0.6965,4.591946 0.30065,0.245986 2.03672,0.368838 5.20726,0.368838 5.87645,0 8.81447,-1.680675 8.81447,-5.042552 0,-2.350576 -1.17543,-3.908406 -3.52602,-4.673713 -1.31195,-0.409986 -3.47135,-0.615318 -6.47791,-0.615318 z m 1.76301,22.385587 c -3.52585,0 -5.43898,0.136697 -5.73964,0.410016 -0.30065,0.245992 -0.45118,1.912823 -0.45118,5.001374 0,3.225214 0.17764,5.015481 0.53295,5.370799 0.35533,0.327988 2.32323,0.492372 5.90376,0.492372 2.9519,0 5.0294,-0.232437 6.23202,-0.697086 1.99526,-0.79264 2.99306,-2.378157 2.99306,-4.75607 0,-2.459904 -1.02491,-4.126738 -3.07483,-5.001372 -1.31196,-0.546649 -3.44424,-0.820033 -6.39614,-0.820033 z" /></g></g></svg>
