<?xml version="1.0" encoding="UTF-8" standalone="no"?>
<svg
   width="100%"
   height="100%"
   viewBox="0 0 600 600"
   version="1.1"
   id="svg1"
   sodipodi:docname="cli.svg"
   inkscape:version="1.3 (0e150ed6c4, 2023-07-21)"
   xmlns:inkscape="http://www.inkscape.org/namespaces/inkscape"
   xmlns:sodipodi="http://sodipodi.sourceforge.net/DTD/sodipodi-0.dtd"
   xmlns="http://www.w3.org/2000/svg"
   xmlns:svg="http://www.w3.org/2000/svg">
  <defs
     id="defs1" />
  <sodipodi:namedview
     id="namedview1"
     pagecolor="#000000"
     bordercolor="#666666"
     borderopacity="1.0"
     inkscape:showpageshadow="2"
     inkscape:pageopacity="0.0"
     inkscape:pagecheckerboard="0"
     inkscape:deskcolor="#d1d1d1"
     inkscape:zoom="1.2685547"
     inkscape:cx="62.669745"
     inkscape:cy="205.35181"
     inkscape:window-width="2880"
     inkscape:window-height="1694"
     inkscape:window-x="-11"
     inkscape:window-y="-11"
     inkscape:window-maximized="1"
     inkscape:current-layer="svg1" />
  <path
     id="path1"
     d="M 71.545268,19.637419 C 61.340685,20.094697 51.745738,25.368807 45.011146,32.907094 C 39.158646,38.873655 34.702494,46.540908 33.789672,54.955306 C 32.605556,64.998519 36.137212,75.363517 42.859825,82.863195 C 45.194863,85.524565 47.944336,87.772648 50.373638,90.34396 C 88.249274,128.13871 126.04796,166.01048 163.91103,203.81782 C 200.40717,240.28256 236.91526,276.73854 273.50085,313.11525 C 282.94462,321.89854 297.56364,324.01795 309.40628,319.25079 C 313.28521,317.72248 316.79586,315.38904 319.89189,312.61401 C 326.50984,307.02949 332.20216,299.89492 334.56046,291.44178 C 337.94661,278.96679 333.7196,264.79702 324.07122,256.1984 C 247.94141,180.13984 171.85422,104.04118 95.643034,28.065793 C 89.730717,22.786224 81.851354,20.00202 73.987707,19.660015 C 73.380185,19.641382 72.320813,19.616127 71.545268,19.637419 Z" />
  <path
     id="path2"
     d="M 514.73438,480.00977 C 458.50909,480.06951 402.28309,480.0551 346.05841,480.2701 C 333.47596,480.88417 322.01409,490.56298 319.08952,502.78159 C 317.68971,508.53549 317.73235,514.56136 318.5274,520.40073 C 319.58713,526.97369 322.70181,533.2818 327.66602,537.77734 C 333.62481,543.31918 341.84431,546.32059 349.97187,545.94573 C 367.53104,546.09836 385.09089,545.93111 402.65039,545.96661 C 441.16047,545.91213 479.67144,545.92733 518.18063,545.6757 C 524.18392,545.42944 529.94945,542.8859 534.61328,539.17578 C 540.32667,534.59288 544.39933,527.90244 545.45154,520.61915 C 546.4497,514.54305 546.14971,508.27783 544.82895,502.27577 C 542.21206,492.11953 533.75086,483.83554 523.66236,481.11612 C 522.53719,480.79332 521.28163,480.52933 520.25266,480.3665 C 519.05813,480.17484 517.83367,480.05961 516.72461,480.01758 C 516.06137,479.99548 515.39775,479.98839 514.73438,480.00977 Z" />
  <path
     id="path3"
     d="M 294.79458,243.87061 C 285.01848,244.31461 275.82197,249.24854 269.14929,256.25966 C 235.02773,290.61885 200.77981,324.85177 166.57832,359.13024 C 126.45559,399.32325 86.306722,439.48865 46.290914,479.78873 C 44.36082,481.80773 42.305157,483.72208 40.504643,485.8557 C 32.056717,497.04328 31.308948,513.58203 39.113585,525.30319 C 44.191551,532.81545 50.996273,539.37481 59.285395,543.20869 C 71.706392,548.70913 87.284319,545.93338 97.023705,536.45573 C 104.58743,529.1959 111.83745,521.61716 119.30849,514.26235 C 188.51244,444.97288 257.77224,375.73876 326.84866,306.3222 C 334.08692,298.63891 336.90017,287.38003 335.14188,277.07945 C 334.12055,271.11617 331.37533,265.52351 327.5186,260.88369 C 323.465,255.81503 318.54891,251.37119 312.90219,248.14509 C 307.4,245.12644 301.06696,243.62327 294.79458,243.87061 Z" />
</svg>
