<?xml version="1.0" encoding="UTF-8" standalone="no"?>
<svg
   width="100%"
   height="100%"
   viewBox="0 0 600 600"
   version="1.1"
   id="svg1"
   sodipodi:docname="grid.svg"
   inkscape:version="1.3 (0e150ed6c4, 2023-07-21)"
   xmlns:inkscape="http://www.inkscape.org/namespaces/inkscape"
   xmlns:sodipodi="http://sodipodi.sourceforge.net/DTD/sodipodi-0.dtd"
   xmlns="http://www.w3.org/2000/svg"
   xmlns:svg="http://www.w3.org/2000/svg">
  <defs
     id="defs1" />
  <sodipodi:namedview
     id="namedview1"
     pagecolor="#000000"
     bordercolor="#666666"
     borderopacity="1.0"
     inkscape:showpageshadow="2"
     inkscape:pageopacity="0.0"
     inkscape:pagecheckerboard="0"
     inkscape:deskcolor="#d1d1d1"
     inkscape:zoom="1.2685547"
     inkscape:cx="422.92224"
     inkscape:cy="206.14011"
     inkscape:window-width="2880"
     inkscape:window-height="1694"
     inkscape:window-x="-11"
     inkscape:window-y="-11"
     inkscape:window-maximized="1"
     inkscape:current-layer="svg1" />
  <path
     id="path1"
     d="M 312.01042,50.015871 C 255.78513,50.075611 94.309371,50.061201 38.084696,50.276201 C 25.502246,50.890271 14.040376,60.569081 11.115806,72.787691 C 9.7159962,78.541591 9.7586362,84.567461 10.553686,90.406831 C 11.613416,96.979791 14.728096,103.2879 19.692306,107.78344 C 25.651096,113.32528 33.870596,116.32669 41.998151,115.95183 L 315.45667,115.6818 C 321.45996,115.43554 327.22549,112.892 331.88932,109.18188 C 337.60271,104.59898 341.67537,97.908541 342.72758,90.625251 C 343.72574,84.549151 343.42575,78.283931 342.10499,72.281871 C 339.4881,62.125631 331.0269,53.841641 320.9384,51.122221 C 319.81323,50.799421 318.55767,50.535431 317.5287,50.372601 C 316.33417,50.180941 315.10971,50.065711 314.00065,50.023681 C 313.33741,50.001581 312.67379,49.994491 312.01042,50.015871 Z"
     sodipodi:nodetypes="cccccccccccccc"
 />
  <path
     id="path5"
     d="M 556.01042,50.015871 C 499.78513,50.075611 474.30937,50.061201 418.0847,50.276201 C 405.50225,50.890271 394.04038,60.569081 391.11581,72.787691 C 389.716,78.541591 389.75864,84.567461 390.55369,90.406831 C 391.61342,96.979791 394.7281,103.2879 399.69231,107.78344 C 405.6511,113.32528 413.8706,116.32669 421.99815,115.95183 L 559.45667,115.6818 C 565.45996,115.43554 571.22549,112.892 575.88932,109.18188 C 581.60271,104.59898 585.67537,97.908541 586.72758,90.625251 C 587.72574,84.549151 587.42575,78.283931 586.10499,72.281871 C 583.4881,62.125631 575.0269,53.841641 564.9384,51.122221 C 563.81323,50.799421 562.55767,50.535431 561.5287,50.372601 C 560.33417,50.180941 559.10971,50.065711 558.00065,50.023681 C 557.33741,50.001581 556.67379,49.994491 556.01042,50.015871 Z"
     sodipodi:nodetypes="cccccccccccccc"
 />
  <path
     id="path7"
     d="M 285.3096,265.08796 C 341.53489,265.1477 503.01065,265.13329 559.23533,265.34829 C 571.81778,265.96236 583.27965,275.64117 586.20422,287.85978 C 587.60403,293.61368 587.56139,299.63955 586.76634,305.47892 C 585.70661,312.05188 582.59193,318.35999 577.62772,322.85553 C 571.66893,328.39737 563.44943,331.39878 555.32187,331.02392 L 281.86335,330.75389 C 275.86006,330.50763 270.09453,327.96409 265.4307,324.25397 C 259.71731,319.67107 255.64465,312.98063 254.59244,305.69734 C 253.59428,299.62124 253.89427,293.35602 255.21503,287.35396 C 257.83192,277.19772 266.29312,268.91373 276.38162,266.19431 C 277.50679,265.87151 278.76235,265.60752 279.79132,265.44469 C 280.98585,265.25303 282.21031,265.1378 283.31937,265.09577 C 283.98261,265.07367 284.64623,265.06658 285.3096,265.08796 Z"
     sodipodi:nodetypes="cccccccccccccc"
 />
  <path
     id="path8"
     d="M 41.309602,265.08796 C 97.534892,265.1477 123.01065,265.13329 179.23532,265.34829 C 191.81777,265.96236 203.27964,275.64117 206.20421,287.85978 C 207.60402,293.61368 207.56138,299.63955 206.76633,305.47892 C 205.7066,312.05188 202.59192,318.35999 197.62771,322.85553 C 191.66892,328.39737 183.44942,331.39878 175.32187,331.02392 L 37.863352,330.75389 C 31.860062,330.50763 26.094532,327.96409 21.430702,324.25397 C 15.717312,319.67107 11.644652,312.98063 10.592442,305.69734 C 9.5942825,299.62124 9.8942725,293.35602 11.215032,287.35396 C 13.831922,277.19772 22.293122,268.91373 32.381622,266.19431 C 33.506792,265.87151 34.762352,265.60752 35.791322,265.44469 C 36.985852,265.25303 38.210312,265.1378 39.319372,265.09577 C 39.982612,265.07367 40.646232,265.06658 41.309602,265.08796 Z"
     sodipodi:nodetypes="cccccccccccccc"
      />
  <path
     id="path9"
     d="M 312.01042,480.00977 C 255.78513,480.06951 94.309371,480.0551 38.084696,480.2701 C 25.502246,480.88417 14.040376,490.56298 11.115806,502.78159 C 9.7159962,508.53549 9.7586362,514.56136 10.553686,520.40073 C 11.613416,526.97369 14.728096,533.2818 19.692306,537.77734 C 25.651096,543.31918 33.870596,546.32059 41.998151,545.94573 L 315.45667,545.6757 C 321.45996,545.42944 327.22549,542.8859 331.88932,539.17578 C 337.60271,534.59288 341.67537,527.90244 342.72758,520.61915 C 343.72574,514.54305 343.42575,508.27783 342.10499,502.27577 C 339.4881,492.11953 331.0269,483.83554 320.9384,481.11612 C 319.81323,480.79332 318.55767,480.52933 317.5287,480.3665 C 316.33417,480.17484 315.10971,480.05961 314.00065,480.01758 C 313.33741,479.99548 312.67379,479.98839 312.01042,480.00977 Z"
     sodipodi:nodetypes="cccccccccccccc"
     />
  <path
     id="path10"
     d="M 556.01042,480.00977 C 499.78513,480.06951 474.30937,480.0551 418.0847,480.2701 C 405.50225,480.88417 394.04038,490.56298 391.11581,502.78159 C 389.716,508.53549 389.75864,514.56136 390.55369,520.40073 C 391.61342,526.97369 394.7281,533.2818 399.69231,537.77734 C 405.6511,543.31918 413.8706,546.32059 421.99815,545.94573 L 559.45667,545.6757 C 565.45996,545.42944 571.22549,542.8859 575.88932,539.17578 C 581.60271,534.59288 585.67537,527.90244 586.72758,520.61915 C 587.72574,514.54305 587.42575,508.27783 586.10499,502.27577 C 583.4881,492.11953 575.0269,483.83554 564.9384,481.11612 C 563.81323,480.79332 562.55767,480.52933 561.5287,480.3665 C 560.33417,480.17484 559.10971,480.05961 558.00065,480.01758 C 557.33741,479.99548 556.67379,479.98839 556.01042,480.00977 Z"
     sodipodi:nodetypes="cccccccccccccc"
      />
</svg>
