<?xml version="1.0" encoding="UTF-8" standalone="no"?>
<svg
   width="100%"
   height="100%"
   viewBox="0 0 600 600"
   version="1.1"
   id="svg1"
   sodipodi:docname="list.svg"
   inkscape:version="1.3 (0e150ed6c4, 2023-07-21)"
   xmlns:inkscape="http://www.inkscape.org/namespaces/inkscape"
   xmlns:sodipodi="http://sodipodi.sourceforge.net/DTD/sodipodi-0.dtd"
   xmlns="http://www.w3.org/2000/svg"
   xmlns:svg="http://www.w3.org/2000/svg">
  <defs
     id="defs1" />
  <sodipodi:namedview
     id="namedview1"
     pagecolor="#000000"
     bordercolor="#666666"
     borderopacity="1.0"
     inkscape:showpageshadow="2"
     inkscape:pageopacity="0.0"
     inkscape:pagecheckerboard="0"
     inkscape:deskcolor="#d1d1d1"
     inkscape:zoom="1.2685547"
     inkscape:cx="422.92224"
     inkscape:cy="205.35181"
     inkscape:window-width="2496"
     inkscape:window-height="1558"
     inkscape:window-x="2869"
     inkscape:window-y="352"
     inkscape:window-maximized="1"
     inkscape:current-layer="svg1" />
  <path
     id="path2"
     d="M 556.01042,480.00977 C 499.78513,480.06951 94.309371,480.0551 38.084696,480.2701 C 25.502246,480.88417 14.040376,490.56298 11.115806,502.78159 C 9.7159962,508.53549 9.7586362,514.56136 10.553686,520.40073 C 11.613416,526.97369 14.728096,533.2818 19.692306,537.77734 C 25.651096,543.31918 33.870596,546.32059 41.998151,545.94573 C 59.557331,546.09836 324.36681,545.93111 341.92631,545.96661 C 380.43639,545.91213 520.94748,545.92733 559.45667,545.6757 C 565.45996,545.42944 571.22549,542.8859 575.88932,539.17578 C 581.60271,534.59288 585.67537,527.90244 586.72758,520.61915 C 587.72574,514.54305 587.42575,508.27783 586.10499,502.27577 C 583.4881,492.11953 575.0269,483.83554 564.9384,481.11612 C 563.81323,480.79332 562.55767,480.52933 561.5287,480.3665 C 560.33417,480.17484 559.10971,480.05961 558.00065,480.01758 C 557.33741,479.99548 556.67379,479.98839 556.01042,480.00977 Z"
     sodipodi:nodetypes="ccccccccccccccc" />
  <path
     id="path1"
     d="M 556.01042,50.015871 C 499.78513,50.075611 94.309371,50.061201 38.084696,50.276201 C 25.502246,50.890271 14.040376,60.569081 11.115806,72.787691 C 9.7159962,78.541591 9.7586362,84.567461 10.553686,90.406831 C 11.613416,96.979791 14.728096,103.2879 19.692306,107.78344 C 25.651096,113.32528 33.870596,116.32669 41.998151,115.95183 C 59.557331,116.10446 324.36681,115.93721 341.92631,115.97271 C 380.43639,115.91823 520.94748,115.93343 559.45667,115.6818 C 565.45996,115.43554 571.22549,112.892 575.88932,109.18188 C 581.60271,104.59898 585.67537,97.908541 586.72758,90.625251 C 587.72574,84.549151 587.42575,78.283931 586.10499,72.281871 C 583.4881,62.125631 575.0269,53.841641 564.9384,51.122221 C 563.81323,50.799421 562.55767,50.535431 561.5287,50.372601 C 560.33417,50.180941 559.10971,50.065711 558.00065,50.023681 C 557.33741,50.001581 556.67379,49.994491 556.01042,50.015871 Z"
     sodipodi:nodetypes="ccccccccccccccc" />
  <path
     id="path3"
     d="M 556.01042,265.01282 C 499.78513,265.07256 94.309371,265.05815 38.084696,265.27315 C 25.502246,265.88722 14.040376,275.56603 11.115806,287.78464 C 9.7159962,293.53854 9.7586362,299.56441 10.553686,305.40378 C 11.613416,311.97674 14.728096,318.28485 19.692306,322.78039 C 25.651096,328.32223 33.870596,331.32364 41.998151,330.94878 C 59.557331,331.10141 324.36681,330.93416 341.92631,330.96966 C 380.43639,330.91518 520.94748,330.93038 559.45667,330.67875 C 565.45996,330.43249 571.22549,327.88895 575.88932,324.17883 C 581.60271,319.59593 585.67537,312.90549 586.72758,305.6222 C 587.72574,299.5461 587.42575,293.28088 586.10499,287.27882 C 583.4881,277.12258 575.0269,268.83859 564.9384,266.11917 C 563.81323,265.79637 562.55767,265.53238 561.5287,265.36955 C 560.33417,265.17789 559.10971,265.06266 558.00065,265.02063 C 557.33741,264.99853 556.67379,264.99144 556.01042,265.01282 Z"
     sodipodi:nodetypes="ccccccccccccccc" />
</svg>
