<?xml version="1.0" encoding="UTF-8" standalone="no"?>
<!-- Generator: Adobe Illustrator 14.0.0, SVG Export Plug-In . SVG Version: 6.00 Build 43363)  -->

<svg
   version="1.1"
   id="Ebene_1"
   x="0px"
   y="0px"
   viewBox="0 0 760 398"
   enable-background="new 0 0 760 398"
   xml:space="preserve"
   sodipodi:docname="lmu.svg"
   inkscape:version="1.3 (0e150ed6c4, 2023-07-21)"
   xmlns:inkscape="http://www.inkscape.org/namespaces/inkscape"
   xmlns:sodipodi="http://sodipodi.sourceforge.net/DTD/sodipodi-0.dtd"
   xmlns="http://www.w3.org/2000/svg"
   xmlns:svg="http://www.w3.org/2000/svg"><defs
   id="defs19" /><sodipodi:namedview
   id="namedview19"
   borderopacity="1.0"
   inkscape:showpageshadow="2"
   inkscape:pageopacity="0.0"
   inkscape:pagecheckerboard="0"
   inkscape:deskcolor="#d1d1d1"
   showguides="false"
   inkscape:zoom="1.9263158"
   inkscape:cx="380"
   inkscape:cy="199.0847"
   inkscape:window-width="2496"
   inkscape:window-height="1558"
   inkscape:window-x="-11"
   inkscape:window-y="-11"
   inkscape:window-maximized="1"
   inkscape:current-layer="Ebene_1" />&#10;<path
   id="rect1"
   d="M 35.525391 35.568359 L 35.525391 362.44336 L 362.24023 362.44336 L 362.24023 35.568359 L 35.525391 35.568359 z M 58.775391 224.87695 L 69.794922 224.87695 L 69.794922 329.06836 L 101.85352 329.06836 L 101.85352 337.37695 L 58.775391 337.37695 L 58.775391 224.87695 z M 113.21094 224.87695 L 149.44141 224.87695 C 150.00041 227.31095 150.67522 230.46261 151.44922 234.34961 C 152.21922 238.23661 153.09425 242.57249 154.03125 247.39648 C 154.98425 252.20148 155.94894 257.36694 156.96094 262.83594 C 157.95694 268.33593 158.96084 273.92182 159.96484 279.63281 C 160.96884 285.33581 161.88266 290.93388 162.72266 296.42188 C 163.55666 301.89687 164.31133 307.07627 164.98633 311.94727 C 164.98633 312.71726 165.36539 313.10742 166.15039 313.10742 C 166.69739 313.10742 166.98242 312.71626 166.98242 311.94727 C 167.98242 304.63127 169.26327 296.63554 170.82227 287.93555 C 172.38826 279.24056 173.93105 270.76385 175.49805 262.50586 C 177.05705 254.26387 178.55995 246.75185 180.00195 240.00586 C 181.45095 233.23587 182.56361 228.20895 183.34961 224.87695 L 219.41602 224.87695 L 219.41602 337.37695 L 197.71289 337.37695 L 197.71289 242.66016 C 197.71289 242.10116 197.31501 241.82813 196.54102 241.82812 C 196.10002 241.82812 195.87305 242.10116 195.87305 242.66016 C 194.98605 247.08215 194.03311 252.04326 193.03711 257.53125 C 192.02511 263.01124 190.80751 269.43474 189.35352 276.80273 C 187.90852 284.17373 186.15851 292.78668 184.10352 302.63867 C 182.04452 312.50566 179.61989 324.07697 176.83789 337.37695 L 154.28516 337.37695 C 151.50816 324.30297 149.1404 313.00169 147.19141 303.4707 C 145.23441 293.95071 143.53975 285.59185 142.09375 278.38086 C 140.65275 271.18587 139.36691 264.75942 138.25391 259.10742 C 137.14891 253.45943 136.03106 247.9741 134.91406 242.66211 C 134.91406 242.10311 134.52319 241.83008 133.74219 241.83008 C 133.30419 241.83008 133.07812 242.10311 133.07812 242.66211 L 133.07812 337.37695 L 113.21094 337.37695 L 113.21094 224.87695 z M 233.11523 224.87695 L 271.68945 224.87695 L 271.68945 298.32617 C 271.68945 303.53717 272.88058 307.24799 275.26758 309.45898 C 277.66558 311.67398 280.8681 312.7793 284.87109 312.7793 C 288.88309 312.7793 292.11455 311.67398 294.56055 309.45898 C 297.00554 307.24799 298.24414 303.53717 298.24414 298.32617 L 298.24414 224.87695 L 336.63477 224.87695 L 336.63477 294.49805 C 336.63477 302.80704 335.38486 309.86455 332.88086 315.68555 C 330.38486 321.50554 326.86914 326.23249 322.36914 329.89648 C 317.85715 333.56048 312.39995 336.21624 306.00195 337.86523 C 299.59996 339.53723 292.55304 340.36523 284.87305 340.36523 C 277.30705 340.36523 270.34595 339.53723 264.00195 337.86523 C 257.66196 336.21724 252.20057 333.56048 247.64258 329.89648 C 243.07258 326.23249 239.50608 321.50554 236.95508 315.68555 C 234.38908 309.86455 233.11523 302.80704 233.11523 294.49805 L 233.11523 224.87695 z "
   />&#10;<path
   id="rect2"
   d="M 397.75195 35.568359 L 397.75195 362.44336 L 724.4668 362.44336 L 724.4668 35.568359 L 397.75195 35.568359 z M 562.13477 181.22852 C 566.04875 181.22852 568.58417 182.45858 570.20117 183.89258 L 568.37695 187.23633 C 567.07595 185.76733 565.29875 184.43555 562.13477 184.43555 C 558.11877 184.43555 555.13477 188.02519 555.13477 193.45117 C 555.13477 199.01317 558.11889 202.87305 562.33789 202.87305 C 564.77589 202.87305 566.18567 202.2558 566.76367 201.7168 L 566.76367 195.63477 L 561.41211 195.63477 L 561.41211 192.35742 L 571.06055 192.35742 L 571.06055 203.83008 C 568.99455 205.09108 566.21675 206.08789 562.13477 206.08789 C 554.86177 206.08789 550.50977 201.09615 550.50977 193.45117 C 550.50977 185.18519 556.57577 181.22852 562.13477 181.22852 z M 421.79102 181.70898 L 426.24414 181.70898 L 426.24414 202.05664 L 438.11914 202.05664 L 438.11914 205.59961 L 421.79102 205.59961 L 421.79102 181.70898 z M 444.38867 181.70898 L 448.85742 181.70898 L 448.85742 196.45508 C 448.85742 200.24406 450.67491 202.80273 454.37891 202.80273 C 458.01989 202.80273 459.79688 200.41206 459.79688 196.45508 L 459.79688 181.70898 L 464.26172 181.70898 L 464.26172 196.04492 C 464.26072 203.6579 459.31395 206.08789 454.37695 206.08789 C 449.23597 206.08789 444.38867 204.2399 444.38867 196.04492 L 444.38867 181.70898 z M 473.35352 181.70898 L 480.55664 181.70898 C 489.06462 181.70898 492.86914 186.62333 492.86914 193.48633 C 492.86914 201.33831 488.27462 205.59961 480.55664 205.59961 L 473.35352 205.59961 L 473.35352 181.70898 z M 497.77539 181.70898 L 502.74414 181.70898 L 507.61914 200.41211 L 512.2168 183.6543 L 516.94336 183.6543 L 521.51758 200.41211 L 526.35352 181.70898 L 531.02148 181.70898 L 523.7793 205.59961 L 519.03711 205.59961 L 514.4082 188.83789 L 509.7793 205.59961 L 505.04492 205.59961 L 497.77539 181.70898 z M 537.77539 181.70898 L 542.23633 181.70898 L 542.23633 205.59961 L 537.77539 205.59961 L 537.77539 181.70898 z M 477.81836 185.08789 L 477.81836 202.18945 L 480.35352 202.18945 C 485.4315 202.18945 488.20898 199.93931 488.20898 193.48633 C 488.20898 187.88833 485.5245 185.08789 480.35352 185.08789 L 477.81836 185.08789 z M 577.19727 193.41602 L 586.56445 193.41602 L 586.56445 196.38867 L 577.19727 196.38867 L 577.19727 193.41602 z M 676.70508 225.12305 C 679.89706 225.12305 682.90972 226.32205 684.63672 228.37305 L 682.74414 231.34375 C 681.37314 229.66375 679.69308 228.33594 676.70508 228.33594 C 674.06408 228.33594 672.86133 229.86542 672.86133 231.23242 C 672.86133 232.94242 674.40477 233.76386 675.88477 234.38086 L 680.61914 236.38867 C 683.33014 237.55267 685.52148 239.26405 685.52148 242.87305 C 685.52148 245.33403 683.56431 249.97456 676.36133 249.97656 C 671.62733 249.97656 668.91611 247.79694 667.78711 246.46094 L 669.66602 243.46094 C 671.393 245.40594 673.37664 246.77344 676.43164 246.77344 C 679.44764 246.77344 680.85352 245.06225 680.85352 243.53125 C 680.85352 241.64825 679.4477 240.76556 677.5957 239.97656 L 672.86133 237.96484 C 670.28333 236.87084 668.29688 234.92733 668.29688 231.98633 C 668.29687 227.37733 672.86108 225.12305 676.70508 225.12305 z M 422.61133 225.59961 L 428.17383 225.59961 L 434.7207 241.43945 L 440.93945 225.59961 L 446.49414 225.59961 L 447.89648 249.50586 L 443.44336 249.50586 L 442.62305 231.3418 L 436.54102 246.22461 L 432.49023 246.22461 L 426.2832 231.3418 L 425.56055 249.50586 L 421.20508 249.50586 L 422.61133 225.59961 z M 463.33789 225.59961 L 468.00977 225.59961 L 477.47461 249.50586 L 472.5293 249.50586 L 470.43555 243.69336 L 460.63086 243.69336 L 458.50586 249.50586 L 453.79883 249.50586 L 463.33789 225.59961 z M 481.6582 225.59961 L 487.25195 225.59961 L 493.1543 234.47461 L 498.91602 225.59961 L 504.27148 225.59961 L 495.82617 237.11523 L 504.98633 249.50586 L 499.39258 249.50586 L 492.9082 239.86523 L 486.29492 249.50586 L 480.93945 249.50586 L 490.13477 237.11523 L 481.6582 225.59961 z M 511.54102 225.59961 L 516.00586 225.59961 L 516.00586 249.50586 L 511.54102 249.50586 L 511.54102 225.59961 z M 526.40039 225.59961 L 531.95898 225.59961 L 538.50586 241.43945 L 544.7207 225.59961 L 550.2832 225.59961 L 551.68164 249.50586 L 547.22852 249.50586 L 546.39648 231.3418 L 540.32617 246.22461 L 536.27539 246.22461 L 530.06836 231.3418 L 529.3457 249.50586 L 524.99023 249.50586 L 526.40039 225.59961 z M 560.67383 225.59961 L 565.12695 225.59961 L 565.12695 249.50586 L 560.67383 249.50586 L 560.67383 225.59961 z M 574.70117 225.59961 L 579.16602 225.59961 L 579.16602 245.95117 L 591.0332 245.95117 L 591.0332 249.50586 L 574.70117 249.50586 L 574.70117 225.59961 z M 598.62305 225.59961 L 603.07617 225.59961 L 603.07617 249.50586 L 598.62305 249.50586 L 598.62305 225.59961 z M 619.23242 225.59961 L 623.90039 225.59961 L 633.37891 249.50586 L 628.43164 249.50586 L 626.33789 243.69336 L 616.52539 243.69336 L 614.40039 249.50586 L 609.70117 249.50586 L 619.23242 225.59961 z M 639.85352 225.59961 L 645.68945 225.59961 L 655.71289 243.41992 L 655.71289 225.59961 L 660.0957 225.59961 L 660.0957 249.50586 L 654.26367 249.50586 L 644.25195 231.68555 L 644.25195 249.50586 L 639.85352 249.50586 L 639.85352 225.59961 z M 465.46289 230.04492 L 461.72461 240.49023 L 469.27148 240.49023 L 465.46289 230.04492 z M 621.36914 230.04492 L 617.62695 240.49023 L 625.17383 240.49023 L 621.36914 230.04492 z M 691.25195 237.31055 L 700.61523 237.31055 L 700.61523 240.28711 L 691.25195 240.28711 L 691.25195 237.31055 z M 638.54492 262.74023 C 639.85392 262.74023 640.88477 263.8345 640.88477 265.02148 C 640.88477 266.22548 639.81392 267.31836 638.54492 267.31836 C 637.27892 267.31836 636.2168 266.22448 636.2168 265.02148 C 636.2168 263.8335 637.23992 262.74023 638.54492 262.74023 z M 645.16992 262.74023 C 646.47092 262.74023 647.50195 263.8345 647.50195 265.02148 C 647.50195 266.22548 646.44692 267.31836 645.16992 267.31836 C 643.89692 267.31836 642.8418 266.22448 642.8418 265.02148 C 642.8418 263.8335 643.86892 262.74023 645.16992 262.74023 z M 578.02734 269.01562 C 581.22234 269.01562 584.23403 270.20681 585.95703 272.25781 L 584.07031 275.22656 C 582.69931 273.55856 581.01934 272.23047 578.02734 272.23047 C 575.38636 272.23047 574.1875 273.76191 574.1875 275.12891 C 574.1875 276.83989 575.73003 277.65944 577.20703 278.27344 L 581.93359 280.28516 C 584.64459 281.44916 586.84766 283.15653 586.84766 286.76953 C 586.84566 289.23153 584.88853 293.88086 577.68555 293.88086 C 572.94755 293.88086 570.2405 291.68623 569.10352 290.36523 L 570.99023 287.35742 C 572.71323 289.30242 574.70291 290.66992 577.75391 290.66992 C 580.77389 290.66992 582.17969 288.95873 582.17969 287.42773 C 582.17969 285.54075 580.77386 284.65309 578.92188 283.87109 L 574.1875 281.85547 C 571.6095 280.76147 569.62109 278.82089 569.62109 275.87891 C 569.62109 271.26991 574.18736 269.01563 578.02734 269.01562 z M 421.45117 269.49805 L 425.9043 269.49805 L 425.9043 284.24023 C 425.9043 288.02923 427.72455 290.59961 431.43555 290.59961 C 435.06453 290.59961 436.85352 288.20823 436.85352 284.24023 L 436.85352 269.49805 L 441.30664 269.49805 L 441.30664 283.8418 C 441.30664 291.45078 436.37653 293.88086 431.43555 293.88086 C 426.28355 293.88086 421.45117 292.02578 421.45117 283.8418 L 421.45117 269.49805 z M 450.40039 269.49805 L 456.23633 269.49805 L 466.25586 287.31836 L 466.25586 269.49805 L 470.63867 269.49805 L 470.63867 293.39258 L 464.81836 293.39258 L 454.79492 275.56836 L 454.79492 293.39258 L 450.40039 293.39258 L 450.40039 269.49805 z M 480.21289 269.49805 L 484.67773 269.49805 L 484.67773 293.39258 L 480.21289 293.39258 L 480.21289 269.49805 z M 490.60352 269.49805 L 495.65039 269.49805 L 502.61914 288.88867 L 509.58398 269.49805 L 514.41992 269.49805 L 504.87695 293.39258 L 500.15039 293.39258 L 490.60352 269.49805 z M 521.0332 269.49805 L 537.12695 269.49805 L 537.12695 272.98242 L 525.49805 272.98242 L 525.49805 279.26367 L 536.20508 279.26367 L 536.20508 282.67773 L 525.49805 282.67773 L 525.49805 289.84961 L 537.58008 289.84961 L 537.58008 293.39258 L 521.0332 293.39258 L 521.0332 269.49805 z M 545.22852 269.49805 L 554.38867 269.49805 C 558.60767 269.49805 562.41602 271.7133 562.41602 276.1543 C 562.41602 280.65828 558.36464 282.33827 556.30664 282.57227 C 556.99764 283.01327 557.88427 284.17405 558.19727 284.62305 L 564.37891 293.39258 L 559.05273 293.39258 L 554.2207 286.19336 C 552.9827 284.34936 551.916 283.08008 550.79102 283.08008 L 549.68164 283.08008 L 549.68164 293.39258 L 545.22852 293.39258 L 545.22852 269.49805 z M 594.87305 269.49805 L 599.33789 269.49805 L 599.33789 293.39258 L 594.87305 293.39258 L 594.87305 269.49805 z M 605.99023 269.49805 L 626.57227 269.49805 L 626.57227 273.05273 L 618.50977 273.05273 L 618.50977 293.39258 L 614.05664 293.39258 L 614.05664 273.05273 L 605.99023 273.05273 L 605.99023 269.49805 z M 639.67773 269.49805 L 644.34961 269.49805 L 653.81445 293.39258 L 648.88086 293.39258 L 646.78711 287.5918 L 636.9668 287.5918 L 634.8457 293.39258 L 630.14648 293.39258 L 639.67773 269.49805 z M 657.38867 269.49805 L 677.9707 269.49805 L 677.9707 273.05273 L 669.90039 273.05273 L 669.90039 293.39258 L 665.44727 293.39258 L 665.44727 273.05273 L 657.38867 273.05273 L 657.38867 269.49805 z M 549.68164 272.87305 L 549.68164 279.81055 L 553.5293 279.81055 C 556.96728 279.81055 557.81836 278.13828 557.81836 276.1543 C 557.81836 274.3493 556.40828 272.87305 553.5293 272.87305 L 549.68164 272.87305 z M 641.80273 273.93945 L 638.06445 284.38086 L 645.61133 284.38086 L 641.80273 273.93945 z M 462.75195 306.63477 C 464.05295 306.63477 465.12305 307.72892 465.12305 308.91992 C 465.12305 310.11092 464.02495 311.20508 462.75195 311.20508 C 461.48995 311.20508 460.42383 310.11092 460.42383 308.91992 C 460.42383 307.72892 461.45095 306.63477 462.75195 306.63477 z M 469.38086 306.63477 C 470.67786 306.63477 471.74805 307.72892 471.74805 308.91992 C 471.74805 310.11092 470.63886 311.20508 469.38086 311.20508 C 468.10386 311.20508 467.04102 310.11092 467.04102 308.91992 C 467.04102 307.72892 468.07586 306.63477 469.38086 306.63477 z M 525.12695 312.91211 C 528.56495 312.91211 531.23564 314.04517 533.05664 315.95117 L 531.30273 319.27148 C 529.96275 317.7675 528.63425 316.19336 525.19727 316.19336 C 521.14227 316.19336 518.4043 320.12294 518.4043 325.16992 C 518.4043 330.12292 521.35333 334.49805 525.23633 334.49805 C 528.08833 334.49805 529.96333 333.53686 531.98633 331.38086 L 533.70117 334.79883 C 530.92317 336.91983 528.90795 337.76758 525.12695 337.76758 C 517.37697 337.76758 513.73633 331.76392 513.73633 325.16992 C 513.73633 318.71694 518.15797 312.91211 525.12695 312.91211 z M 422.61133 313.39258 L 428.17383 313.39258 L 434.7207 329.23242 L 440.93945 313.39258 L 446.49414 313.39258 L 447.89648 337.28711 L 443.44336 337.28711 L 442.62305 319.13477 L 436.54102 334.01758 L 432.49023 334.01758 L 426.2832 319.13477 L 425.56055 337.28711 L 421.20508 337.28711 L 422.61133 313.39258 z M 456.41211 313.39258 L 460.86523 313.39258 L 460.86523 328.14648 C 460.86523 331.93548 462.6855 334.49805 466.39648 334.49805 C 470.02548 334.49805 471.81445 332.10348 471.81445 328.14648 L 471.81445 313.39258 L 476.26758 313.39258 L 476.26758 327.72852 C 476.26858 335.3455 471.33848 337.76758 466.39648 337.76758 C 461.2445 337.76758 456.41211 335.9315 456.41211 327.72852 L 456.41211 313.39258 z M 485.36133 313.39258 L 491.19727 313.39258 L 501.2168 331.2168 L 501.2168 313.39258 L 505.59961 313.39258 L 505.59961 337.28711 L 499.7793 337.28711 L 489.75586 319.47461 L 489.75586 337.28711 L 485.36133 337.28711 L 485.36133 313.39258 z M 540.66992 313.39258 L 545.13086 313.39258 L 545.13086 323.19727 L 555.83008 323.19727 L 555.83008 313.39258 L 560.29102 313.39258 L 560.29102 337.28711 L 555.83008 337.28711 L 555.83008 326.4668 L 545.13086 326.4668 L 545.13086 337.28711 L 540.66992 337.28711 L 540.66992 313.39258 z M 569.73242 313.39258 L 585.82227 313.39258 L 585.82227 316.88086 L 574.19336 316.88086 L 574.19336 323.1582 L 584.89648 323.1582 L 584.89648 326.57617 L 574.19336 326.57617 L 574.19336 333.74414 L 586.26758 333.74414 L 586.26758 337.28711 L 569.73242 337.28711 L 569.73242 313.39258 z M 593.91602 313.39258 L 599.74414 313.39258 L 609.77148 331.2168 L 609.77148 313.39258 L 614.16602 313.39258 L 614.16602 337.28711 L 608.33008 337.28711 L 598.31055 319.47461 L 598.31055 337.28711 L 593.91602 337.28711 L 593.91602 313.39258 z "
   />&#10;&#10;&#10;&#10;&#10;&#10;&#10;&#10;&#10;&#10;&#10;&#10;&#10;&#10;&#10;&#10;&#10;&#10;&#10;&#10;&#10;&#10;&#10;&#10;&#10;&#10;&#10;&#10;&#10;&#10;&#10;&#10;&#10;&#10;&#10;&#10;&#10;&#10;&#10;</svg>
