<?xml version="1.0" encoding="UTF-8" standalone="no"?>
<svg
   width="100%"
   height="100%"
   viewBox="0 0 600 600"
   version="1.1"
   id="svg1"
   sodipodi:docname="prev.svg"
   inkscape:version="1.3 (0e150ed6c4, 2023-07-21)"
   xmlns:inkscape="http://www.inkscape.org/namespaces/inkscape"
   xmlns:sodipodi="http://sodipodi.sourceforge.net/DTD/sodipodi-0.dtd"
   xmlns="http://www.w3.org/2000/svg"
   xmlns:svg="http://www.w3.org/2000/svg">
  <defs
     id="defs1" />
  <sodipodi:namedview
     id="namedview1"
     pagecolor="#000000"
     bordercolor="#666666"
     borderopacity="1.0"
     inkscape:showpageshadow="2"
     inkscape:pageopacity="0.0"
     inkscape:pagecheckerboard="0"
     inkscape:deskcolor="#d1d1d1"
     inkscape:zoom="1.2685547"
     inkscape:cx="433.95843"
     inkscape:cy="206.14011"
     inkscape:window-width="2880"
     inkscape:window-height="1694"
     inkscape:window-x="-11"
     inkscape:window-y="-11"
     inkscape:window-maximized="1"
     inkscape:current-layer="svg1" />
  <path
     id="path1"
     d="M 413.73366,31.637419 C 423.93825,32.094697 433.53319,37.368807 440.26778,44.907094 C 446.12028,50.873655 450.57644,58.540908 451.48926,66.955306 C 452.67337,76.998519 449.14172,87.363517 442.4191,94.863195 C 440.08407,97.524565 437.33459,99.772648 434.90529,102.34396 C 397.02966,140.13871 359.23097,178.01048 321.3679,215.81782 C 284.87176,252.28256 248.36367,288.73854 211.77808,325.11525 C 202.33431,333.89854 187.71529,336.01795 175.87265,331.25079 C 171.99372,329.72248 168.48307,327.38904 165.38704,324.61401 C 158.76909,319.02949 153.07677,311.89492 150.71847,303.44178 C 147.33232,290.96679 151.55933,276.79702 161.20771,268.1984 C 237.33752,192.13984 313.42471,116.04118 389.6359,40.065793 C 395.54821,34.786224 403.42758,32.00202 411.29122,31.660015 C 411.89875,31.641382 412.95812,31.616127 413.73366,31.637419 Z" />
  <path
     id="path3"
     d="M 190.48435,255.87061 C 200.26045,256.31461 209.45696,261.24854 216.12964,268.25966 C 250.2512,302.61885 284.49912,336.85177 318.70061,371.13024 C 358.82334,411.32325 398.97221,451.48865 438.98802,491.78873 C 440.91811,493.80773 442.97377,495.72208 444.77429,497.8557 C 453.22221,509.04328 453.96998,525.58203 446.16534,537.30319 C 441.08738,544.81545 434.28266,551.37481 425.99354,555.20869 C 413.57254,560.70913 397.99461,557.93338 388.25522,548.45573 C 380.6915,541.1959 373.44148,533.61716 365.97044,526.26235 C 296.76649,456.97288 227.50669,387.73876 158.43027,318.3222 C 151.19201,310.63891 148.37876,299.38003 150.13705,289.07945 C 151.15838,283.11617 153.9036,277.52351 157.76033,272.88369 C 161.81393,267.81503 166.73002,263.37119 172.37674,260.14509 C 177.87893,257.12644 184.21197,255.62327 190.48435,255.87061 Z" />
</svg>
