<?xml version="1.0" encoding="UTF-8" standalone="no"?>
<svg
   width="100%"
   height="100%"
   viewBox="0 0 600 600"
   version="1.1"
   id="svg1"
   sodipodi:docname="thingiverse.svg"
   inkscape:version="1.3 (0e150ed6c4, 2023-07-21)"
   xml:space="preserve"
   xmlns:inkscape="http://www.inkscape.org/namespaces/inkscape"
   xmlns:sodipodi="http://sodipodi.sourceforge.net/DTD/sodipodi-0.dtd"
   xmlns="http://www.w3.org/2000/svg"
   xmlns:svg="http://www.w3.org/2000/svg"><defs
     id="defs1" /><sodipodi:namedview
     id="namedview1"
     pagecolor="#000000"
     bordercolor="#666666"
     borderopacity="1.0"
     inkscape:showpageshadow="2"
     inkscape:pageopacity="0.0"
     inkscape:pagecheckerboard="0"
     inkscape:deskcolor="#d1d1d1"
     inkscape:zoom="0.44850181"
     inkscape:cx="346.70986"
     inkscape:cy="364.54702"
     inkscape:window-width="2496"
     inkscape:window-height="1558"
     inkscape:window-x="-11"
     inkscape:window-y="-11"
     inkscape:window-maximized="1"
     inkscape:current-layer="g1" /><g
     fill-rule="evenodd"
     id="g1"
     transform="matrix(4.8828125,0,0,4.8828125,-903.29014,-885.45298)"><path
       d="M 246.43382,304.22077 C 212.50142,304.22077 184.99382,276.71317 184.99382,242.78077 C 184.99382,208.84837 212.50142,181.34077 246.43382,181.34077 C 280.36622,181.34077 307.87382,208.84837 307.87382,242.78077 C 307.87382,276.71317 280.36622,304.22077 246.43382,304.22077 Z M 246.43382,295.44373 C 275.5187,295.44373 299.09678,271.86565 299.09678,242.78077 C 299.09678,213.69589 275.5187,190.11781 246.43382,190.11781 C 217.34894,190.11781 193.77086,213.69589 193.77086,242.78077 C 193.77086,271.86565 217.34894,295.44373 246.43382,295.44373 Z M 254.2871,230.76997 V 283.43269 H 238.58054 V 230.76997 H 216.40694 V 215.06317 H 276.46094 V 230.76973 Z"
       id="path1"
       style="stroke-width:0.24" /></g></svg>
